G04 Layer_Color=16711935*
%FSLAX44Y44*%
%MOMM*%
G71*
G01*
G75*
%ADD13C,1.6032*%
%ADD14P,2.3847X8X202.5*%
%ADD15P,2.3847X8X112.5*%
G36*
X461000Y39000D02*
X39000Y39000D01*
X39000Y462000D01*
X461000Y462000D01*
X461000Y39000D01*
D02*
G37*
D13*
X315000Y70000D02*
D03*
Y125000D02*
D03*
Y175000D02*
D03*
Y225000D02*
D03*
Y275000D02*
D03*
Y325000D02*
D03*
Y375000D02*
D03*
Y425000D02*
D03*
X175000D02*
D03*
Y375000D02*
D03*
Y325000D02*
D03*
Y275000D02*
D03*
Y225000D02*
D03*
Y175000D02*
D03*
Y125000D02*
D03*
Y75000D02*
D03*
D14*
X453200Y478600D02*
D03*
X46800D02*
D03*
X72200D02*
D03*
X97600D02*
D03*
X123000D02*
D03*
X148400D02*
D03*
X173800D02*
D03*
X199200D02*
D03*
X224600D02*
D03*
X250000D02*
D03*
X275400D02*
D03*
X300800D02*
D03*
X326200D02*
D03*
X351600D02*
D03*
X377000D02*
D03*
X402400D02*
D03*
X427800D02*
D03*
X453200Y21400D02*
D03*
X46800D02*
D03*
X72200D02*
D03*
X97600D02*
D03*
X123000D02*
D03*
X148400D02*
D03*
X173800D02*
D03*
X199200D02*
D03*
X224600D02*
D03*
X250000D02*
D03*
X275400D02*
D03*
X300800D02*
D03*
X326200D02*
D03*
X351600D02*
D03*
X377000D02*
D03*
X402400D02*
D03*
X427800D02*
D03*
D15*
X21400D02*
D03*
Y46800D02*
D03*
Y72200D02*
D03*
Y97600D02*
D03*
Y123000D02*
D03*
Y148400D02*
D03*
Y173800D02*
D03*
Y199200D02*
D03*
Y224600D02*
D03*
Y250000D02*
D03*
Y275400D02*
D03*
Y300800D02*
D03*
Y326200D02*
D03*
Y351600D02*
D03*
Y377000D02*
D03*
Y402400D02*
D03*
Y427800D02*
D03*
Y453200D02*
D03*
Y478600D02*
D03*
X478600Y21400D02*
D03*
Y46800D02*
D03*
Y72200D02*
D03*
Y97600D02*
D03*
Y123000D02*
D03*
Y148400D02*
D03*
Y173800D02*
D03*
Y199200D02*
D03*
Y224600D02*
D03*
Y250000D02*
D03*
Y275400D02*
D03*
Y300800D02*
D03*
Y326200D02*
D03*
Y351600D02*
D03*
Y377000D02*
D03*
Y402400D02*
D03*
Y427800D02*
D03*
Y453200D02*
D03*
Y478600D02*
D03*
M02*
