M48
;Layer_Color=9474304
;FILE_FORMAT=4:4
METRIC,LZ
;TYPE=PLATED
T1F00S00C0.7000
T2F00S00C0.9000
%
T01
X00175Y00075
Y00125
X00315
Y0007
Y00175
Y00225
Y00275
Y00325
Y00375
Y00425
X00175
Y00375
Y00325
Y00275
Y00225
Y00175
T02
X001484Y000214
X001738
X001992
X002246
X0025
X002754
X003008
X003262
X003516
X00377
X004024
X004278
X004532
X004786
Y000468
Y000722
Y000976
Y00123
Y001484
X000214
Y00123
Y000976
Y000722
Y000468
Y000214
X000468
X000722
X000976
X00123
X000214Y001738
Y001992
Y002246
Y0025
Y002754
Y003008
Y003262
Y003516
Y00377
Y004024
Y004278
Y004532
Y004786
X000468
X000722
X000976
X00123
X001484
X001738
X001992
X002246
X0025
X002754
X003008
X003262
X003516
X00377
X004024
X004278
X004532
X004786
Y004532
Y004278
Y004024
Y00377
Y003516
Y003262
Y003008
Y002754
Y0025
Y002246
Y001992
Y001738
M30
